<?xml version="1.0" encoding="UTF-8"?>
<svg id="Calque_2" xmlns="http://www.w3.org/2000/svg" viewBox="0 0 285 159">
  <defs>
    <style>
      .cls-1 {
        fill: #fff;
      }
    </style>
  </defs>
  <g id="Calque_1-2" data-name="Calque_1">
    <path class="cls-1" d="M285,29v4c-6.99,6.14-13.66,12.72-21.07,18.3-7.88,5.93-11.9,13.86-15.23,22.75-8.11,21.66-16.77,43.12-24.94,64.76-2.14,5.68-5.79,9.27-11.41,10.86-6.87,1.95-13.75,4-20.77,5.28-9.46,1.72-19.06,2.73-28.59,4.05h-44c-3.75-.66-7.51-1.25-11.24-2-11.56-2.34-23.16-4.52-34.63-7.23-5.97-1.41-9.83-5.37-12.12-11.45-9.16-24.32-18.59-48.53-28.27-72.65-1.53-3.82-4.44-7.36-7.44-10.29-8.22-8.01-16.84-15.61-25.3-23.38,0-1,0-2,0-3,5.64-3.14,11.03-6.93,16.98-9.3C40.51,10.3,65.29,6.09,90.29,3.01,99.51,1.87,108.76.99,118,0c16.67,0,33.33,0,50,0,1.45.32,2.89.85,4.36.93,22.99,1.33,45.72,4.58,68.06,10.14,15.64,3.89,31.48,7.59,44.58,17.93ZM126,117.28h.09c-1.73-24.25-3.48-48.48-5.15-72.73-.24-3.49-2.17-4.82-5.27-4.42-15.67,2.04-31.38,3.82-46.95,6.48-7.38,1.26-10.71,7.96-8.94,15.31.89,3.72,2.1,7.37,3.2,11.04,4.7,15.63,9.36,31.28,14.15,46.89,2.35,7.63,6.5,10.71,13.42,9.96,10.76-1.16,21.49-2.58,32.24-3.77,2.76-.31,3.82-1.59,3.49-4.28-.18-1.49-.2-2.99-.29-4.49ZM158.91,117.11c0,.36.16,1.22-.03,2.01-1.22,5.23.85,6.88,6.14,7.2,9.44.59,18.83,2.03,28.23,3.26,7.11.93,11.99-1.9,14.2-8.73,1.33-4.11,2.4-8.31,3.6-12.47,4.37-15.19,8.83-30.35,13.1-45.56,2.47-8.79-.67-15.95-8.64-17.19-15.24-2.39-30.64-3.8-45.99-5.5-3.37-.37-5.21,1.29-5.46,4.88-1.65,23.88-3.4,47.74-5.15,72.09Z"/>
  </g>
</svg>