<?xml version="1.0" encoding="UTF-8"?>
<svg id="Calque_2" xmlns="http://www.w3.org/2000/svg" xmlns:xlink="http://www.w3.org/1999/xlink" viewBox="0 0 67 79">
  <defs>
    <style>
      .cls-1 {
        fill: #adadac;
      }

      .cls-2 {
        fill: none;
      }

      .cls-3 {
        clip-path: url(#clippath-1);
      }

      .cls-4 {
        clip-path: url(#clippath);
      }
    </style>
    <clipPath id="clippath">
      <rect class="cls-2" x="14.27" y="44.95" width="52.73" height="34.05"/>
    </clipPath>
    <clipPath id="clippath-1">
      <rect class="cls-2" width="58.27" height="38.29"/>
    </clipPath>
  </defs>
  <g id="Calque_1-2" data-name="Calque_1">
    <g>
      <g class="cls-4">
        <path class="cls-1" d="M66.95,57.64c0-6.13-7.83-9.64-13.73-11.75l-.86,2.42c8.09,2.9,12.02,5.95,12.02,9.33,0,3.64-4.32,6.79-13.6,9.9-5.21,1.73-11.47,3.28-17.53,4.78-6.15,1.53-12.52,3.1-17.88,4.9l.82,2.44c5.26-1.76,11.58-3.32,17.68-4.83,6.11-1.51,12.41-3.07,17.73-4.84,7.15-2.41,15.36-5.97,15.36-12.34Z"/>
      </g>
      <path class="cls-1" d="M47.02,22.72l2.55-2.55,1.82,1.82-2.55,2.55-1.82-1.82Z"/>
      <path class="cls-1" d="M32.19,14.04h2.57v3.61h-2.57v-3.61Z"/>
      <path class="cls-1" d="M22.65,40.57c-.16.6-.08,1.16.24,1.69l1.55,2.56c.15.25.35.46.58.64.23.17.49.3.78.38.29.07.57.09.86.05.29-.04.57-.13.82-.27l.4-.22c.56.4,1.16.73,1.79,1v.36c0,.3.07.58.18.85.11.28.28.52.49.72.21.21.45.37.73.48s.56.16.85.16h3.1c.29,0,.58-.05.85-.16.27-.11.52-.27.73-.48.21-.2.38-.44.49-.72.11-.27.18-.55.18-.85v-.36c.63-.27,1.23-.6,1.79-1l.41.22c.26.15.53.23.82.27.29.04.58.02.86-.05.29-.08.55-.2.78-.38.23-.18.43-.39.58-.64l1.54-2.56c.32-.53.41-1.09.24-1.69-.17-.6-.53-1.06-1.08-1.36l-.34-.19c.07-.64.07-1.27,0-1.9l.34-.19c.55-.3.91-.76,1.08-1.36.16-.6.08-1.16-.24-1.69l-1.54-2.56c-.16-.25-.35-.46-.59-.64-.23-.17-.49-.3-.78-.37s-.57-.09-.86-.06-.56.13-.82.26l-.41.22c-.56-.4-1.16-.73-1.79-.99v-.36c0-.29-.07-.58-.18-.85-.11-.28-.28-.52-.49-.72-.21-.21-.45-.37-.73-.48s-.56-.17-.85-.16h-3.09c-.29,0-.58.05-.85.16s-.52.27-.73.48c-.21.21-.38.45-.49.72s-.18.56-.18.85v.36c-.64.27-1.23.6-1.79,1l-.41-.22c-.26-.14-.53-.23-.82-.26-.29-.04-.57-.02-.86.06-.28.07-.54.2-.78.37s-.43.39-.59.63l-1.54,2.57c-.32.53-.41,1.09-.24,1.69.17.61.53,1.06,1.07,1.36l.35.19c-.07.63-.07,1.26,0,1.89l-.34.19c-.55.3-.92.76-1.08,1.36ZM26.59,38.07c0-.29.02-.58.06-.88.06-.45-.02-.88-.22-1.28-.21-.41-.51-.71-.91-.93l-.22-.13,1.18-1.96.32.17c.4.21.82.31,1.27.28s.85-.18,1.22-.45c.47-.34.98-.62,1.52-.84.43-.16.78-.43,1.04-.81.27-.38.4-.79.4-1.25v-.26h2.46v.26c0,.46.14.88.4,1.25.26.38.6.65,1.04.81.54.22,1.05.5,1.52.85.36.27.77.42,1.22.45.45.04.87-.06,1.27-.27l.32-.17,1.18,1.95-.22.13c-.4.21-.7.53-.91.93-.2.41-.28.83-.22,1.28.08.58.08,1.17,0,1.74-.06.45.02.88.22,1.28.21.41.51.71.91.93l.22.12-1.18,1.96-.32-.18c-.4-.21-.82-.3-1.27-.27-.45.03-.85.18-1.22.45-.47.34-.98.63-1.52.84-.43.16-.78.43-1.04.81-.27.38-.4.8-.4,1.26v.26h-2.46v-.26c0-.46-.14-.88-.4-1.26-.26-.38-.6-.65-1.04-.81-.54-.22-1.05-.5-1.52-.85-.36-.27-.77-.42-1.22-.45s-.87.06-1.27.27l-.32.18-1.18-1.96.22-.12c.4-.22.7-.53.91-.93.2-.4.28-.83.22-1.28-.04-.29-.06-.58-.06-.88Z"/>
      <path class="cls-1" d="M33.48,42.36c.57,0,1.11-.11,1.64-.33.53-.21.99-.53,1.4-.93.4-.41.71-.87.93-1.4s.32-1.07.32-1.64-.1-1.12-.32-1.65-.53-.99-.93-1.39-.86-.71-1.39-.93c-.53-.21-1.08-.32-1.65-.32s-1.11.11-1.64.32c-.53.22-.99.53-1.4.93-.4.4-.71.87-.93,1.4s-.33,1.07-.33,1.64.11,1.11.33,1.64.53.99.93,1.39c.4.41.86.71,1.39.93s1.07.33,1.64.33ZM33.48,36.35c.23,0,.45.05.66.13.21.09.4.21.56.38s.29.34.38.56c.09.21.13.43.13.66s-.04.45-.13.66c-.09.21-.21.4-.37.56-.16.16-.35.29-.56.38-.21.08-.43.13-.66.13s-.44-.04-.66-.13c-.21-.09-.4-.21-.56-.38s-.29-.34-.37-.56c-.09-.21-.14-.43-.14-.66s.05-.45.14-.66c.08-.21.21-.4.37-.56s.35-.29.56-.37c.21-.09.43-.14.66-.14Z"/>
      <path class="cls-1" d="M24.98,54.05v6.86c0,.56.06,1.11.17,1.66s.27,1.08.48,1.59.47,1.01.78,1.47c.31.46.67.9,1.06,1.29.4.39.82.74,1.29,1.06.46.31.95.57,1.47.78s1.05.38,1.59.48,1.1.16,1.66.16,1.11-.05,1.66-.16,1.08-.27,1.59-.48,1.01-.47,1.47-.78c.47-.31.9-.67,1.29-1.06.39-.4.74-.83,1.06-1.29.31-.46.57-.95.78-1.47s.38-1.05.48-1.59.17-1.1.17-1.66v-6.86c1.44-.77,2.77-1.72,3.95-2.85,1.19-1.14,2.21-2.4,3.05-3.81.85-1.41,1.49-2.9,1.93-4.48.44-1.58.67-3.19.68-4.83,0-1.22-.13-2.44-.37-3.64-.25-1.2-.61-2.36-1.1-3.49-.48-1.13-1.07-2.2-1.77-3.2s-1.49-1.93-2.38-2.78c-.89-.85-1.85-1.59-2.89-2.24s-2.14-1.19-3.28-1.62c-1.15-.43-2.33-.73-3.54-.92s-2.43-.26-3.66-.19c-.98.05-1.95.17-2.92.38-.96.21-1.91.49-2.82.85s-1.8.79-2.65,1.29c-.84.51-1.65,1.07-2.4,1.71-.75.64-1.45,1.32-2.09,2.07-.64.74-1.22,1.54-1.73,2.38-.51.84-.95,1.72-1.32,2.64-.36.91-.66,1.85-.88,2.81-.21.96-.35,1.93-.41,2.92s-.03,1.96.07,2.94.29,1.94.55,2.9c.26.95.6,1.87,1.01,2.77s.89,1.75,1.44,2.56c.55.82,1.17,1.58,1.84,2.3.68.71,1.41,1.37,2.19,1.97.79.59,1.61,1.13,2.48,1.58ZM33.48,66.83c-.6,0-1.19-.09-1.77-.28-.58-.18-1.11-.44-1.61-.79-.49-.35-.92-.76-1.29-1.23-.37-.48-.66-1-.87-1.57h11.07c-.21.57-.5,1.09-.87,1.57-.37.47-.8.89-1.29,1.23-.49.34-1.03.6-1.61.79-.57.18-1.16.28-1.77.28ZM39.4,60.39h-11.84v-3.01h11.84v3.01ZM18.01,36.65c.09-.93.26-1.83.51-2.73s.57-1.76.98-2.59c.41-.84.88-1.63,1.43-2.38.54-.75,1.15-1.45,1.82-2.09s1.39-1.22,2.17-1.73c.77-.52,1.59-.95,2.44-1.32.85-.36,1.73-.66,2.64-.86.91-.21,1.82-.34,2.75-.39.26-.01.51-.02.76-.02,1.02,0,2.03.1,3.03.3,1,.2,1.97.49,2.91.89s1.84.87,2.69,1.44,1.63,1.21,2.35,1.93c.72.72,1.36,1.51,1.93,2.35.56.85,1.04,1.74,1.43,2.69s.69,1.91.89,2.91.3,2.01.3,3.03c0,1.47-.21,2.91-.63,4.32-.42,1.41-1.02,2.73-1.8,3.97-.79,1.24-1.73,2.35-2.83,3.32s-2.31,1.78-3.64,2.41c-.48.23-.73.62-.73,1.16v1.56h-11.84v-1.55c0-.54-.24-.93-.73-1.16-1.44-.68-2.75-1.56-3.92-2.64-1.17-1.08-2.15-2.31-2.94-3.69-.79-1.39-1.35-2.85-1.68-4.41s-.43-3.13-.28-4.71Z"/>
      <path class="cls-1" d="M15.57,21.99l1.82-1.82,2.55,2.55-1.82,1.82-2.55-2.55Z"/>
      <g class="cls-3">
        <path class="cls-1" d="M56.97,2.14l-7.28-1.84c-.48-.12-.9,0-1.24.36-.34.36-.44.78-.3,1.26l.75,2.48c-4.81,1.49-10.3,2.85-15.65,4.18-6.16,1.52-12.53,3.1-17.89,4.89C8.21,15.85,0,19.41,0,25.78,0,31.66,7.09,35.03,12.42,37.05l.91-2.41c-7.23-2.74-10.76-5.65-10.76-8.86,0-3.59,4.45-6.81,13.6-9.86,5.26-1.76,11.58-3.32,17.68-4.83,5.37-1.33,10.9-2.7,15.77-4.21l.74,2.45c.15.48.46.78.95.89.09.02.19.03.28.03.38,0,.7-.14.95-.42l5.05-5.55c.16-.17.26-.36.31-.58.05-.22.04-.44-.03-.66-.07-.22-.18-.41-.35-.56-.16-.16-.35-.26-.57-.31h0ZM52.19,6.4l-.92-3.04,2.99.76-2.07,2.29Z"/>
      </g>
    </g>
  </g>
</svg>