<?xml version="1.0" encoding="UTF-8"?>
<svg width="130" height="60" id="Calque_1" xmlns="http://www.w3.org/2000/svg" viewBox="0 0 779.6 177.32">
  <defs>
    <style>
      .cls-1 {
        fill: #df0b15;
      }
    </style>
  </defs>
  <path class="cls-1" d="M84,117.51c11.62-21.84,14.65-43.96,7.48-66.73-3.59,37.27-18.25,44.8-39.39,71.41,14.31-31.63,24.37-56.67,24.02-79.31-.35-22.2-10.01-36.49-31.07-41.32,15.74,16.23,15.12,36.7,8.98,52.69-5.99,15.65-16.83,26-21.9,26.2-9.13.38-8.66-4.65-7.25-12.76,1.41-8.13,3.79-19.47-1.23-30.66,2.73,17.2-2.78,36.89-5.08,50.24-2.26,13.26-1.44,20.59,14.4,14.73,14.38-5.32,3.97,10.78-9.08,19.81-12.17,8.39-22.96,9.01-22.22-17.9-2.55,10.53-2.12,29.26.78,41.72,8.87,38.2,22.61,32.2,31.16,26.57,20.41-13.44,42.87-40.6,50.39-54.71"/>
  <path class="cls-1" d="M137.32,176.02V1.22h78.29c35.66,0,53.56,16.42,53.56,49.29,0,35.6-24.45,57.09-73.3,64.64l-4.58-28.86c29.31-5.28,43.99-16.88,43.99-34.83,0-14.55-7.25-21.76-21.77-21.76h-43.78v146.32h-32.4Z"/>
  <path class="cls-1" d="M449.47,175.84V1.22h79.51c35.69,0,53.53,15.6,53.53,46.79,0,21.14-13.91,38.61-41.72,52.45l55.43,75.57h-40.82l-53.21-76.16v-14.77c30.98-5.29,46.48-17.3,46.48-36.08,0-12.91-7.25-19.32-21.8-19.32h-44.35v146.14h-33.04Z"/>
  <path class="cls-1" d="M605.36,88.85c0-59.25,29.28-88.85,87.79-88.85s86.45,29.6,86.45,88.85-28.82,88.47-86.45,88.47-85.19-29.48-87.79-88.47M693.14,149.14c35.21,0,52.82-20.35,52.82-61.01s-17.61-60-52.82-60-54.15,19.96-54.15,60,18.08,61.01,54.15,61.01"/>
  <polygon class="cls-1" points="275.24 2.02 310.07 2.02 359.22 86.25 405.48 2.02 439.07 2.02 374.75 115.7 374.75 176.84 342.35 176.84 342.35 115.7 275.24 2.02"/>
</svg>