<?xml version="1.0" encoding="UTF-8"?>
<svg width="200" height="70" id="Calque_1" xmlns="http://www.w3.org/2000/svg" viewBox="0 0 952 656.69">
  <defs>
    <style>
      .cls-1 {
        fill: #df0b15;
      }
    </style>
  </defs>
  <path class="cls-1" d="M315.57,435.57c43.65-82.04,55.03-165.15,28.1-250.67-13.47,140.03-68.57,168.29-147.96,268.27,53.76-118.81,91.53-212.89,90.24-297.94-1.31-83.41-37.62-137.08-116.72-155.22,59.11,60.97,56.8,137.86,33.73,197.94-22.5,58.79-63.22,97.69-82.26,98.44-34.28,1.42-32.55-17.47-27.24-47.92,5.28-30.54,14.22-73.14-4.61-115.18,10.24,64.6-10.43,138.57-19.07,188.75-8.48,49.81-5.42,77.35,54.11,55.35,54.01-19.99,14.9,40.5-34.1,74.43-45.72,31.53-86.27,33.86-83.49-67.23-9.59,39.56-7.95,109.91,2.91,156.73,33.31,143.52,84.95,120.96,117.07,99.8,76.67-50.5,161.06-152.52,189.28-205.53"/>
  <path class="cls-1" d="M309.72,655.39v-174.8h78.29c35.66,0,53.56,16.42,53.56,49.29,0,35.6-24.45,57.09-73.3,64.64l-4.58-28.86c29.31-5.28,43.99-16.88,43.99-34.83,0-14.55-7.25-21.76-21.77-21.76h-43.78v146.32h-32.4Z"/>
  <path class="cls-1" d="M621.87,655.22v-174.62h79.51c35.69,0,53.53,15.6,53.53,46.79,0,21.14-13.91,38.61-41.72,52.45l55.43,75.57h-40.82l-53.21-76.16v-14.77c30.98-5.29,46.48-17.3,46.48-36.08,0-12.91-7.25-19.32-21.8-19.32h-44.35v146.14h-33.04Z"/>
  <path class="cls-1" d="M777.76,568.22c0-59.25,29.28-88.85,87.79-88.85s86.45,29.6,86.45,88.85-28.82,88.47-86.45,88.47-85.19-29.48-87.79-88.47M865.55,628.51c35.21,0,52.82-20.35,52.82-61.01s-17.61-60-52.82-60-54.15,19.96-54.15,60,18.08,61.01,54.15,61.01"/>
  <polygon class="cls-1" points="447.64 481.39 482.48 481.39 531.62 565.63 577.89 481.39 611.47 481.39 547.16 595.08 547.16 656.21 514.75 656.21 514.75 595.08 447.64 481.39"/>
</svg>