<?xml version="1.0" encoding="UTF-8"?>
<svg id="Calque_2" xmlns="http://www.w3.org/2000/svg" xmlns:xlink="http://www.w3.org/1999/xlink" viewBox="0 0 108 108">
  <defs>
    <style>
      .cls-1 {
        fill: #adadac;
        fill-rule: evenodd;
      }

      .cls-2 {
        fill: none;
      }

      .cls-3 {
        clip-path: url(#clippath);
      }
    </style>
    <clipPath id="clippath">
      <rect class="cls-2" width="108" height="108"/>
    </clipPath>
  </defs>
  <g id="Calque_1-2" data-name="Calque_1">
    <g>
      <path class="cls-1" d="M53.79,86.05c-17.5,0-31.78-14.28-31.78-31.78s14.28-31.84,31.78-31.84,31.84,14.34,31.84,31.84-14.28,31.78-31.84,31.78ZM53.79,25.52c-15.86,0-28.75,12.89-28.75,28.75s12.89,28.74,28.75,28.74,28.74-12.89,28.74-28.74-12.89-28.75-28.74-28.75Z"/>
      <path class="cls-1" d="M48.29,71.45c-.25,0-.57-.13-.82-.19-.07-.06-.13-.19-.32-.26l-5.63-5.56-7.77-7.77c-2.15-2.21-2.15-5.69,0-7.77,2.15-2.15,5.69-2.15,7.77,0l6.76,6.69,17.76-17.94c1.07-1.08,2.4-1.58,3.85-1.58s2.84.51,3.85,1.58c1.07,1.07,1.7,2.46,1.7,3.92s-.63,2.84-1.7,3.85l-24.45,24.57c-.06.06-.25.19-.31.26-.19.06-.44.19-.64.19h-.06ZM37.68,51.36c-.63,0-1.32.25-1.77.69-.89.89-.89,2.46.13,3.41l12.26,12.19,23.38-23.38c.44-.44.7-1.07.7-1.7,0-.7-.26-1.27-.7-1.71-.88-.89-2.46-.89-3.41,0l-18.95,19.02c-.57.57-1.58.57-2.15,0-.13-.13-.19-.19-.26-.31l-7.45-7.52c-.44-.51-1.14-.69-1.77-.69Z"/>
      <g class="cls-3">
        <path class="cls-1" d="M54.04,107.78c-2.84,0-5.11-2.15-7.45-4.36-1.58-1.52-3.1-3.09-4.68-3.54-1.52-.32-3.73.19-5.81.76-3.16.76-6.38,1.52-9.1.06-2.71-1.58-3.66-4.8-4.55-7.96-.63-2.15-1.27-4.23-2.28-5.31-1.07-1.01-3.28-1.71-5.37-2.34-2.97-.89-6.13-1.77-7.52-4.3-1.39-2.53-.63-5.62.19-8.66.51-2.08,1.14-4.23.7-5.68-.38-1.45-1.96-2.97-3.41-4.55C2.55,59.7.03,57.18.34,53.89c-.31-3.16,2.21-5.69,4.43-7.96,1.45-1.45,3.03-3.03,3.47-4.55.38-1.39-.19-3.6-.7-5.69-.82-2.97-1.64-6.13-.19-8.59,1.39-2.53,4.55-3.41,7.52-4.3,2.15-.63,4.3-1.2,5.37-2.34,1.08-1.07,1.65-3.29,2.28-5.31.89-3.16,1.83-6.38,4.55-7.96,2.71-1.58,6-.76,9.09,0,2.15.51,4.3,1.07,5.81.69,1.52-.32,3.16-1.9,4.74-3.47C48.99,2.21,51.26,0,54.17,0s5.18,2.28,7.33,4.48c1.58,1.52,3.16,3.16,4.55,3.54,1.52.32,3.6-.19,5.69-.69,3.03-.82,6.19-1.71,8.71-.19,2.53,1.39,3.42,4.42,4.3,7.45.57,2.08,1.2,4.3,2.34,5.31,1.14,1.14,3.29,1.77,5.37,2.4,3.16.89,6.38,1.83,7.9,4.55,1.45,2.59.7,5.94-.13,9.1-.51,2.08-1.01,4.3-.69,5.81.44,1.45,2.02,3.09,3.54,4.68,2.15,2.33,4.42,4.61,4.36,7.45.06,2.91-2.21,5.31-4.36,7.58-1.52,1.58-3.09,3.22-3.54,4.68-.32,1.52.19,3.73.69,5.81.82,3.16,1.58,6.38.13,9.1-1.58,2.71-4.86,3.73-8.02,4.55-2.08.64-4.17,1.27-5.24,2.28-1.14,1.14-1.77,3.35-2.34,5.43-.88,3.03-1.77,6.07-4.3,7.58-2.53,1.39-5.62.57-8.71-.19-2.09-.51-4.17-1.14-5.69-.69-1.45.32-3.03,1.9-4.55,3.47-2.27,2.02-4.55,4.3-7.45,4.3ZM40.78,96.79c.69,0,1.26.06,1.9.26,2.27.57,4.23,2.4,6.06,4.17,1.83,1.77,3.67,3.6,5.31,3.54,1.71,0,3.54-1.83,5.31-3.6s3.67-3.66,5.94-4.3c2.28-.63,4.8.06,7.27.7,2.34.63,4.93,1.33,6.32.51,1.39-.76,2.09-3.29,2.78-5.69.69-2.53,1.52-5.05,3.16-6.76,1.65-1.58,4.11-2.27,6.57-2.97,2.53-.69,5.24-1.45,6.13-3.16.88-1.58.25-4.3-.32-6.82-.63-2.47-1.27-5.06-.69-7.27.57-2.28,2.4-4.23,4.29-6.07,1.71-1.83,3.54-3.66,3.48-5.31v-.13c.06-1.65-1.77-3.47-3.48-5.31-1.77-1.83-3.72-3.79-4.29-6.07-.64-2.27.06-4.8.69-7.33.57-2.59,1.27-5.31.32-6.89-.95-1.64-3.6-2.34-6.13-3.16-2.46-.7-4.99-1.45-6.64-3.04-1.7-1.64-2.46-4.23-3.16-6.76-.7-2.34-1.39-4.8-2.84-5.63-1.45-.76-3.92-.13-6.38.44-2.46.63-4.99,1.33-7.27.69-2.28-.57-4.11-2.4-5.94-4.3-1.77-1.7-3.6-3.54-5.18-3.54s-3.54,1.71-5.24,3.47c-1.83,1.83-3.79,3.67-6.13,4.23-2.21.57-4.86-.13-7.27-.63-2.59-.64-5.31-1.33-6.89-.38-1.64,1.01-2.4,3.6-3.16,6.13-.7,2.46-1.39,4.93-2.97,6.57-1.65,1.71-4.17,2.46-6.7,3.16-2.46.69-4.93,1.45-5.81,2.91-.76,1.39-.19,3.98.44,6.32.63,2.46,1.33,4.99.69,7.27-.63,2.27-2.46,4.1-4.29,5.88-1.9,1.96-3.79,3.85-3.48,5.62v.44c-.31,1.83,1.58,3.67,3.54,5.69,1.77,1.83,3.6,3.66,4.23,5.88.64,2.28-.06,4.8-.69,7.27-.63,2.34-1.33,4.93-.51,6.32.76,1.45,3.29,2.15,5.75,2.91,2.46.69,4.99,1.45,6.7,3.09,1.52,1.71,2.33,4.17,3.03,6.57.69,2.59,1.52,5.31,3.16,6.19,1.58.82,4.3.25,6.82-.38,2.02-.38,3.85-.76,5.56-.76Z"/>
      </g>
    </g>
  </g>
</svg>