<?xml version="1.0" encoding="UTF-8"?>
<svg id="Calque_2" xmlns="http://www.w3.org/2000/svg" xmlns:xlink="http://www.w3.org/1999/xlink" viewBox="0 0 88.4 79.71">
  <defs>
    <style>
      .cls-1 {
        fill: #adadac;
        fill-rule: evenodd;
      }

      .cls-2 {
        fill: none;
      }

      .cls-3 {
        clip-path: url(#clippath);
      }
    </style>
    <clipPath id="clippath">
      <rect class="cls-2" width="88.4" height="79.71"/>
    </clipPath>
  </defs>
  <g id="Calque_1-2" data-name="Calque_1">
    <g>
      <g class="cls-3">
        <path class="cls-1" d="M44.1,3.07c-.71,0-1.45.1-2.17.28-2.12.58-3.91,1.94-5,3.85L3.79,64.64c-.71,1.25-1.11,2.68-1.11,4.1,0,4.55,3.69,8.26,8.24,8.26h66.35c1.43,0,2.85-.38,4.1-1.11,1.91-1.09,3.28-2.88,3.85-5,.58-2.13.28-4.35-.81-6.28L51.23,7.2c-.73-1.25-1.79-2.3-3.02-3.02-1.27-.76-2.68-1.11-4.1-1.11ZM77.27,79.68H10.92C4.9,79.68,0,74.78,0,68.75,0,66.84.49,64.96,1.47,63.31L34.64,5.85c1.45-2.52,3.81-4.32,6.61-5.08,2.82-.76,5.78-.38,8.29,1.09,1.65.95,3.04,2.34,4.01,3.98l33.17,57.46c1.45,2.54,1.85,5.48,1.09,8.29-.76,2.82-2.56,5.18-5.1,6.63-1.65.93-3.54,1.45-5.44,1.45Z"/>
      </g>
      <path class="cls-1" d="M27.89,67.16h32.39v-2.58H27.89v2.58ZM61.61,69.82H26.56c-.73,0-1.33-.6-1.33-1.33v-5.24c0-.73.59-1.33,1.33-1.33h35.07c.73,0,1.33.59,1.33,1.33v5.24c0,.73-.61,1.33-1.35,1.33Z"/>
      <path class="cls-1" d="M30.09,64.58c-.73,0-1.33-.6-1.33-1.33v-16.29c-.1-8.44,6.69-15.41,15.14-15.51h.18c8.38,0,15.22,6.77,15.32,15.15v16.61c0,.73-.6,1.33-1.33,1.33s-1.33-.59-1.33-1.33v-16.59c-.08-6.91-5.76-12.51-12.66-12.51h-.16c-6.99.08-12.6,5.83-12.51,12.82v16.3c0,.75-.6,1.35-1.33,1.35Z"/>
      <path class="cls-1" d="M44.08,51.84c-.73,0-1.33-.59-1.33-1.33v-10.99c0-.73.59-1.33,1.33-1.33s1.33.59,1.33,1.33v10.99c0,.73-.59,1.33-1.33,1.33Z"/>
      <path class="cls-1" d="M48.07,57.3h-8c-.73,0-1.33-.59-1.33-1.33s.59-1.33,1.33-1.33h8c.73,0,1.33.59,1.33,1.33.02.73-.58,1.33-1.33,1.33Z"/>
      <path class="cls-1" d="M44.08,29.85c-.73,0-1.33-.6-1.33-1.33v-4.63c0-.73.59-1.33,1.33-1.33s1.33.59,1.33,1.33v4.63c0,.71-.59,1.33-1.33,1.33Z"/>
      <path class="cls-1" d="M31.87,34.89c-.34,0-.68-.14-.95-.4l-3.28-3.28c-.52-.52-.52-1.36,0-1.89.52-.52,1.37-.52,1.89,0l3.28,3.28c.52.52.52,1.37,0,1.89-.26.28-.59.4-.93.4Z"/>
      <path class="cls-1" d="M26.81,47.14h-4.65c-.73,0-1.33-.6-1.33-1.33s.6-1.33,1.33-1.33h4.65c.73,0,1.33.6,1.33,1.33s-.59,1.33-1.33,1.33Z"/>
      <path class="cls-1" d="M65.99,47.14h-4.65c-.73,0-1.33-.6-1.33-1.33s.59-1.33,1.33-1.33h4.65c.73,0,1.33.6,1.33,1.33.02.73-.58,1.33-1.33,1.33Z"/>
      <path class="cls-1" d="M56.29,34.91c-.34,0-.67-.14-.93-.4-.52-.52-.52-1.37,0-1.89l3.28-3.3c.52-.52,1.37-.52,1.89,0,.52.52.52,1.37,0,1.89l-3.28,3.3c-.26.28-.59.4-.95.4Z"/>
    </g>
  </g>
</svg>