<?xml version="1.0" encoding="UTF-8"?>
<svg id="Calque_2" xmlns="http://www.w3.org/2000/svg" xmlns:xlink="http://www.w3.org/1999/xlink" viewBox="0 0 73 74.89">
  <defs>
    <style>
      .cls-1 {
        fill: #adadac;
      }

      .cls-2 {
        fill: none;
      }

      .cls-3 {
        clip-path: url(#clippath-1);
      }

      .cls-4 {
        clip-path: url(#clippath);
      }
    </style>
    <clipPath id="clippath">
      <rect class="cls-2" x="6.55" y="53.56" width="66.45" height="21.33"/>
    </clipPath>
    <clipPath id="clippath-1">
      <rect class="cls-2" y="50.89" width="6.55" height="21.33"/>
    </clipPath>
  </defs>
  <g id="Calque_1-2" data-name="Calque_1">
    <g>
      <path class="cls-1" d="M10.92,57.85c1.34,0,2.47-.86,2.9-2.06h3.42c.13,0,.26-.03.38-.09,2.3-1.13,4.72-1.95,7.17-2.44,2.78-.55,4.59-.85,6.83-.21,2.83.81,5.24,2.82,6.52,5.75.14.32.47.5.81.52h8.99c1.55,0,2.56.85,2.68,2.2,0,1.48-1.2,2.69-2.68,2.69h-9.56c-.38-1.28-1.55-2.22-2.95-2.22-1.7,0-3.08,1.38-3.08,3.08s1.38,3.08,3.08,3.08c1.4,0,2.57-.95,2.95-2.22h9.56c2.42,0,4.4-1.97,4.4-4.48-.21-2.3-1.98-3.83-4.4-3.83h-8.47c-1.54-3.12-4.22-5.29-7.38-6.2-2.75-.79-5.02-.34-7.64.18-2.54.5-5.03,1.34-7.42,2.49h-3.11c-.32-1.36-1.54-2.39-3-2.39-1.7,0-3.08,1.39-3.08,3.08s1.38,3.08,3.08,3.08ZM35.43,66.42c-.76,0-1.36-.61-1.36-1.37s.61-1.37,1.36-1.37,1.37.61,1.37,1.37-.61,1.37-1.37,1.37ZM10.92,53.39c.76,0,1.37.61,1.37,1.37s-.61,1.37-1.37,1.37-1.36-.61-1.36-1.37.61-1.37,1.36-1.37Z"/>
      <g class="cls-4">
        <path class="cls-1" d="M10.92,69.92c1.42,0,2.59-.96,2.96-2.26h5.63l21.79,6.85c1.8.56,3.73.32,5.33-.65l25.53-15.56c.4-.24.53-.76.29-1.16-.03-.06-3.33-5.53-9.73-2-2.71,1.51-2.96,1.65-4.34,2.36-1.92-1.98-5.29-.63-5.29,2.14,0,1.7,1.38,3.08,3.08,3.08,1.95,0,3.42-1.79,3.02-3.71,1.26-.65,1.37-.71,4.36-2.37,3.73-2.06,5.98-.38,6.93.69l-24.73,15.07c-1.18.72-2.61.89-3.92.48l-21.92-6.89c-.08-.03-.17-.04-.26-.04h-5.78c-.39-1.26-1.55-2.19-2.94-2.19-1.7,0-3.08,1.38-3.08,3.08s1.38,3.08,3.08,3.08ZM56.16,61c-.76,0-1.36-.61-1.36-1.37s.61-1.37,1.36-1.37,1.37.61,1.37,1.37-.61,1.37-1.37,1.37ZM10.92,65.47c.76,0,1.37.61,1.37,1.36s-.61,1.37-1.37,1.37-1.36-.61-1.36-1.37.61-1.36,1.36-1.36Z"/>
      </g>
      <g class="cls-3">
        <path class="cls-1" d="M4.28,70.08H1.01c-.47,0-.86.39-.86.85s.39.86.86.86h3.35c1.17,0,2.02-1.38,2.02-3.28v-14c0-1.9-.85-3.28-2.02-3.28H1.01c-.47,0-.86.39-.86.86s.39.85.86.85h3.27c.13.15.39.68.39,1.57v14c0,.89-.27,1.42-.39,1.57Z"/>
      </g>
      <path class="cls-1" d="M34.7,10.87c.22-.42.06-.94-.35-1.16-.42-.22-.94-.06-1.16.35-4.15,7.85-2.39,18.39,5.8,24.21,1.92,1.37,3.02,3.42,3.02,5.63v5.22c0,.47.39.85.86.85h14.11c.47,0,.85-.39.85-.85v-5.22c0-2.21,1.1-4.27,3.03-5.64,4.97-3.54,7.94-9.29,7.94-15.39,0-14.89-16.25-23.55-28.51-16.28-.41.24-.54.77-.3,1.18.24.41.77.54,1.17.3,11.21-6.65,25.92,1.34,25.92,14.8,0,5.54-2.7,10.77-7.22,13.99-4.01,2.85-3.72,6.93-3.74,7.04h-6.36c-.47,0-.86.39-.86.86s.39.85.86.85h6.36v2.64h-12.41v-2.64h3.01c.47,0,.86-.38.86-.85s-.39-.86-.86-.86h-3.01c0-2.74-1.4-5.37-3.74-7.04-7.37-5.24-9.09-14.81-5.28-22.02Z"/>
      <path class="cls-1" d="M50.96,48.18c0-.47-.39-.85-.86-.85h-7.76c-.47,0-.85.39-.85.85v.64c0,3.37,3.11,6.11,6.93,6.11h3.17c3.82,0,6.93-2.74,6.93-6.11v-.64c0-.47-.38-.85-.85-.85h-4.49c-.47,0-.86.39-.86.85s.39.86.86.86h3.63c-.14,2.32-2.42,4.18-5.21,4.18h-3.17c-2.79,0-5.07-1.85-5.21-4.18h6.89c.47,0,.86-.39.86-.86Z"/>
      <path class="cls-1" d="M28.14,8.02l-4.51-5.33c-.3-.36-.84-.41-1.21-.1-.36.31-.41.85-.1,1.21l4.51,5.33c.17.2.41.3.66.3.72,0,1.12-.85.65-1.41Z"/>
      <path class="cls-1" d="M14.66,13.83c-.14.45.11.93.56,1.07,7.06,2.19,6.67,2.11,6.92,2.11.36,0,.7-.23.82-.6.14-.45-.11-.93-.56-1.07l-6.66-2.08c-.45-.14-.93.11-1.07.56Z"/>
      <path class="cls-1" d="M22.54,25.2c-.13-.45-.59-.72-1.05-.6l-6.74,1.82c-.45.13-.72.59-.6,1.05.13.45.58.72,1.05.6l6.74-1.83c.45-.13.72-.59.6-1.05Z"/>
      <path class="cls-1" d="M22.26,39.21l4.7-5.16c.32-.35.29-.89-.06-1.21s-.89-.3-1.21.06l-4.7,5.16c-.32.35-.3.89.05,1.21.35.31.89.3,1.21-.06Z"/>
      <path class="cls-1" d="M33.7,37.64l-1.2,6.88c-.08.47.23.91.7.99.49.08.91-.26.99-.7l1.2-6.88c.08-.46-.23-.91-.7-.99-.46-.07-.91.23-.99.7Z"/>
      <path class="cls-1" d="M51.11,6.19h-.21c-2.58,0-4.69,2.1-4.69,4.69v.65h-4.13c-.47,0-.85.38-.85.85v2.95h-.74c-2.59,0-4.69,2.1-4.69,4.69v.19c0,2.59,2.1,4.7,4.69,4.7h.74v2.95c0,.47.39.86.85.86h3.55v.83c0,2.64,2.15,4.79,4.79,4.79s4.79-2.15,4.79-4.79v-.83h5.91c.47,0,.85-.39.85-.86v-3.81c0-.47-.38-.85-.85-.85h-1.46c-1.7,0-3.08-1.38-3.08-3.08s1.38-3.07,3.08-3.07h1.46c.47,0,.85-.39.85-.86v-3.81c0-.47-.38-.85-.85-.85h-5.32v-.65c0-2.58-2.1-4.69-4.68-4.69ZM60.26,13.23v2.1h-.61c-2.64,0-4.79,2.15-4.79,4.79s2.15,4.79,4.79,4.79h.61v2.09h-5.91c-.47,0-.86.39-.86.85v1.69c0,1.69-1.38,3.07-3.07,3.07s-3.08-1.38-3.08-3.07v-1.69c0-.47-.39-.85-.85-.85h-3.55v-2.95c0-.47-.39-.85-.86-.85h-1.59c-1.64,0-2.98-1.34-2.98-2.98v-.19c0-1.65,1.34-2.98,2.98-2.98h1.59c.47,0,.86-.39.86-.86v-2.95h4.13c.47,0,.85-.38.85-.85v-1.5c0-1.64,1.33-2.97,2.97-2.97h.21c1.64,0,2.97,1.33,2.97,2.97v1.5c0,.47.39.85.86.85h5.32Z"/>
    </g>
  </g>
</svg>